<mxfile host="app.diagrams.net" agent="Mozilla/5.0 (Windows NT 10.0; Win64; x64) AppleWebKit/537.36 (KHTML, like Gecko) Chrome/135.0.0.0 Safari/537.36" version="26.2.14">
  <diagram name="PÃ¡gina-1" id="L-0Wv2fF3LqPga_j7R_v">
    <mxGraphModel dx="2658" dy="1061" grid="1" gridSize="10" guides="1" tooltips="1" connect="1" arrows="1" fold="1" page="1" pageScale="1" pageWidth="827" pageHeight="1169" math="0" shadow="0">
      <root>
        <mxCell id="0" />
        <mxCell id="1" parent="0" />
        <mxCell id="qDJffVcF8Huqy4RCvGuB-21" value="&lt;span style=&quot;color: rgba(0, 0, 0, 0); font-family: monospace; font-size: 0px; text-wrap-mode: nowrap;&quot;&gt;%3CmxGraphModel%3E%3Croot%3E%3CmxCell%20id%3D%220%22%2F%3E%3CmxCell%20id%3D%221%22%20parent%3D%220%22%2F%3E%3CmxCell%20id%3D%222%22%20value%3D%22%22%20style%3D%22sketch%3D0%3Bpoints%3D%5B%5B0%2C0%2C0%5D%2C%5B0.25%2C0%2C0%5D%2C%5B0.5%2C0%2C0%5D%2C%5B0.75%2C0%2C0%5D%2C%5B1%2C0%2C0%5D%2C%5B0%2C1%2C0%5D%2C%5B0.25%2C1%2C0%5D%2C%5B0.5%2C1%2C0%5D%2C%5B0.75%2C1%2C0%5D%2C%5B1%2C1%2C0%5D%2C%5B0%2C0.25%2C0%5D%2C%5B0%2C0.5%2C0%5D%2C%5B0%2C0.75%2C0%5D%2C%5B1%2C0.25%2C0%5D%2C%5B1%2C0.5%2C0%5D%2C%5B1%2C0.75%2C0%5D%5D%3BoutlineConnect%3D0%3BfontColor%3D%23232F3E%3BfillColor%3D%23ED7100%3BstrokeColor%3D%23ffffff%3Bdashed%3D0%3BverticalLabelPosition%3Dbottom%3BverticalAlign%3Dtop%3Balign%3Dcenter%3Bhtml%3D1%3BfontSize%3D12%3BfontStyle%3D0%3Baspect%3Dfixed%3Bshape%3Dmxgraph.aws4.resourceIcon%3BresIcon%3Dmxgraph.aws4.ecs%3B%22%20vertex%3D%221%22%20parent%3D%221%22%3E%3CmxGeometry%20x%3D%221060%22%20y%3D%2270%22%20width%3D%2278%22%20height%3D%2278%22%20as%3D%22geometry%22%2F%3E%3C%2FmxCell%3E%3C%2Froot%3E%3C%2FmxGraphModel%3E&lt;/span&gt;ECR" style="fillColor=none;strokeColor=#000000;verticalAlign=top;fontStyle=0;fontColor=#5A6C86;whiteSpace=wrap;html=1;align=left;" vertex="1" parent="1">
          <mxGeometry x="1040" y="40" width="210" height="250" as="geometry" />
        </mxCell>
        <mxCell id="qDJffVcF8Huqy4RCvGuB-30" value="&lt;font style=&quot;color: rgb(0, 0, 0);&quot;&gt;Imagenes&lt;/font&gt;" style="fillColor=none;strokeColor=#5A6C86;dashed=1;verticalAlign=top;fontStyle=0;fontColor=#5A6C86;whiteSpace=wrap;html=1;align=left;" vertex="1" parent="1">
          <mxGeometry x="1060" y="110" width="170" height="160" as="geometry" />
        </mxCell>
        <mxCell id="qDJffVcF8Huqy4RCvGuB-4" value="AWS Cloud" style="points=[[0,0],[0.25,0],[0.5,0],[0.75,0],[1,0],[1,0.25],[1,0.5],[1,0.75],[1,1],[0.75,1],[0.5,1],[0.25,1],[0,1],[0,0.75],[0,0.5],[0,0.25]];outlineConnect=0;gradientColor=none;html=1;whiteSpace=wrap;fontSize=12;fontStyle=0;container=1;pointerEvents=0;collapsible=0;recursiveResize=0;shape=mxgraph.aws4.group;grIcon=mxgraph.aws4.group_aws_cloud_alt;strokeColor=#232F3E;fillColor=none;verticalAlign=top;align=left;spacingLeft=30;fontColor=#232F3E;dashed=0;" vertex="1" parent="1">
          <mxGeometry x="60" y="40" width="900" height="670" as="geometry" />
        </mxCell>
        <mxCell id="qDJffVcF8Huqy4RCvGuB-9" value="VPC" style="points=[[0,0],[0.25,0],[0.5,0],[0.75,0],[1,0],[1,0.25],[1,0.5],[1,0.75],[1,1],[0.75,1],[0.5,1],[0.25,1],[0,1],[0,0.75],[0,0.5],[0,0.25]];outlineConnect=0;gradientColor=none;html=1;whiteSpace=wrap;fontSize=12;fontStyle=0;container=1;pointerEvents=0;collapsible=0;recursiveResize=0;shape=mxgraph.aws4.group;grIcon=mxgraph.aws4.group_vpc2;strokeColor=#8C4FFF;fillColor=none;verticalAlign=top;align=left;spacingLeft=30;fontColor=#AAB7B8;dashed=0;" vertex="1" parent="qDJffVcF8Huqy4RCvGuB-4">
          <mxGeometry x="50" y="150" width="810" height="490" as="geometry" />
        </mxCell>
        <mxCell id="qDJffVcF8Huqy4RCvGuB-15" value="Microservicio frontend" style="fillColor=none;strokeColor=#5A6C86;dashed=1;verticalAlign=top;fontStyle=0;fontColor=#5A6C86;whiteSpace=wrap;html=1;" vertex="1" parent="qDJffVcF8Huqy4RCvGuB-9">
          <mxGeometry x="470" y="30" width="306" height="130" as="geometry" />
        </mxCell>
        <mxCell id="qDJffVcF8Huqy4RCvGuB-16" value="Microservicio backend" style="fillColor=none;strokeColor=#5A6C86;dashed=1;verticalAlign=top;fontStyle=0;fontColor=#5A6C86;whiteSpace=wrap;html=1;" vertex="1" parent="qDJffVcF8Huqy4RCvGuB-9">
          <mxGeometry x="470" y="204" width="306" height="130" as="geometry" />
        </mxCell>
        <mxCell id="qDJffVcF8Huqy4RCvGuB-20" value="" style="html=1;endArrow=block;elbow=vertical;startArrow=block;startFill=1;endFill=1;strokeColor=#545B64;rounded=0;exitX=1;exitY=0.5;exitDx=0;exitDy=0;exitPerimeter=0;entryX=0;entryY=0.5;entryDx=0;entryDy=0;" edge="1" parent="qDJffVcF8Huqy4RCvGuB-9" source="qDJffVcF8Huqy4RCvGuB-5" target="qDJffVcF8Huqy4RCvGuB-16">
          <mxGeometry width="100" relative="1" as="geometry">
            <mxPoint x="120" y="270" as="sourcePoint" />
            <mxPoint x="220" y="270" as="targetPoint" />
          </mxGeometry>
        </mxCell>
        <mxCell id="qDJffVcF8Huqy4RCvGuB-34" value="" style="html=1;endArrow=block;elbow=vertical;startArrow=block;startFill=1;endFill=1;strokeColor=#545B64;rounded=0;exitX=1;exitY=0;exitDx=0;exitDy=0;exitPerimeter=0;entryX=0;entryY=0.5;entryDx=0;entryDy=0;" edge="1" parent="qDJffVcF8Huqy4RCvGuB-9" source="qDJffVcF8Huqy4RCvGuB-5" target="qDJffVcF8Huqy4RCvGuB-15">
          <mxGeometry width="100" relative="1" as="geometry">
            <mxPoint x="130" y="150" as="sourcePoint" />
            <mxPoint x="230" y="150" as="targetPoint" />
          </mxGeometry>
        </mxCell>
        <mxCell id="qDJffVcF8Huqy4RCvGuB-3" value="" style="sketch=0;outlineConnect=0;fontColor=#232F3E;gradientColor=none;fillColor=#C925D1;strokeColor=none;dashed=0;verticalLabelPosition=bottom;verticalAlign=top;align=center;html=1;fontSize=12;fontStyle=0;aspect=fixed;pointerEvents=1;shape=mxgraph.aws4.rds_postgresql_instance;" vertex="1" parent="qDJffVcF8Huqy4RCvGuB-9">
          <mxGeometry x="584" y="390" width="78" height="78" as="geometry" />
        </mxCell>
        <mxCell id="qDJffVcF8Huqy4RCvGuB-35" value="" style="html=1;endArrow=block;elbow=vertical;startArrow=block;startFill=1;endFill=1;strokeColor=#545B64;rounded=0;exitX=1;exitY=0.5;exitDx=0;exitDy=0;exitPerimeter=0;" edge="1" parent="qDJffVcF8Huqy4RCvGuB-9" source="qDJffVcF8Huqy4RCvGuB-5" target="qDJffVcF8Huqy4RCvGuB-3">
          <mxGeometry width="100" relative="1" as="geometry">
            <mxPoint x="150" y="380" as="sourcePoint" />
            <mxPoint x="250" y="380" as="targetPoint" />
          </mxGeometry>
        </mxCell>
        <mxCell id="qDJffVcF8Huqy4RCvGuB-36" value="" style="html=1;endArrow=block;elbow=vertical;startArrow=block;startFill=1;endFill=1;strokeColor=#545B64;rounded=0;exitX=0.5;exitY=1;exitDx=0;exitDy=0;" edge="1" parent="qDJffVcF8Huqy4RCvGuB-9" source="qDJffVcF8Huqy4RCvGuB-16" target="qDJffVcF8Huqy4RCvGuB-3">
          <mxGeometry width="100" relative="1" as="geometry">
            <mxPoint x="118" y="269" as="sourcePoint" />
            <mxPoint x="300" y="413" as="targetPoint" />
          </mxGeometry>
        </mxCell>
        <mxCell id="qDJffVcF8Huqy4RCvGuB-38" value="" style="html=1;endArrow=block;elbow=vertical;startArrow=none;endFill=1;strokeColor=#545B64;rounded=0;entryX=0;entryY=0.5;entryDx=0;entryDy=0;exitX=1;exitY=0.5;exitDx=0;exitDy=0;exitPerimeter=0;" edge="1" parent="qDJffVcF8Huqy4RCvGuB-9" source="qDJffVcF8Huqy4RCvGuB-11" target="qDJffVcF8Huqy4RCvGuB-15">
          <mxGeometry width="100" relative="1" as="geometry">
            <mxPoint x="-142" y="103" as="sourcePoint" />
            <mxPoint x="130" y="127" as="targetPoint" />
          </mxGeometry>
        </mxCell>
        <mxCell id="qDJffVcF8Huqy4RCvGuB-39" value="" style="html=1;endArrow=block;elbow=vertical;startArrow=none;endFill=1;strokeColor=#545B64;rounded=0;entryX=0.5;entryY=0;entryDx=0;entryDy=0;exitX=1;exitY=0.5;exitDx=0;exitDy=0;exitPerimeter=0;entryPerimeter=0;" edge="1" parent="qDJffVcF8Huqy4RCvGuB-9" source="qDJffVcF8Huqy4RCvGuB-11" target="qDJffVcF8Huqy4RCvGuB-5">
          <mxGeometry width="100" relative="1" as="geometry">
            <mxPoint x="208" y="131" as="sourcePoint" />
            <mxPoint x="480" y="105" as="targetPoint" />
          </mxGeometry>
        </mxCell>
        <mxCell id="qDJffVcF8Huqy4RCvGuB-43" value="" style="group" vertex="1" connectable="0" parent="qDJffVcF8Huqy4RCvGuB-9">
          <mxGeometry x="190" y="240" width="78" height="108" as="geometry" />
        </mxCell>
        <mxCell id="qDJffVcF8Huqy4RCvGuB-5" value="" style="sketch=0;points=[[0,0,0],[0.25,0,0],[0.5,0,0],[0.75,0,0],[1,0,0],[0,1,0],[0.25,1,0],[0.5,1,0],[0.75,1,0],[1,1,0],[0,0.25,0],[0,0.5,0],[0,0.75,0],[1,0.25,0],[1,0.5,0],[1,0.75,0]];outlineConnect=0;fontColor=#232F3E;fillColor=#E7157B;strokeColor=#ffffff;dashed=0;verticalLabelPosition=bottom;verticalAlign=top;align=center;html=1;fontSize=12;fontStyle=0;aspect=fixed;shape=mxgraph.aws4.resourceIcon;resIcon=mxgraph.aws4.api_gateway;" vertex="1" parent="qDJffVcF8Huqy4RCvGuB-43">
          <mxGeometry width="78" height="78" as="geometry" />
        </mxCell>
        <mxCell id="qDJffVcF8Huqy4RCvGuB-32" value="API Gateway" style="text;html=1;align=center;verticalAlign=middle;whiteSpace=wrap;rounded=0;" vertex="1" parent="qDJffVcF8Huqy4RCvGuB-43">
          <mxGeometry x="9" y="78" width="60" height="30" as="geometry" />
        </mxCell>
        <mxCell id="qDJffVcF8Huqy4RCvGuB-44" value="" style="group" vertex="1" connectable="0" parent="qDJffVcF8Huqy4RCvGuB-9">
          <mxGeometry x="30" y="100" width="78" height="104" as="geometry" />
        </mxCell>
        <mxCell id="qDJffVcF8Huqy4RCvGuB-11" value="" style="sketch=0;points=[[0,0,0],[0.25,0,0],[0.5,0,0],[0.75,0,0],[1,0,0],[0,1,0],[0.25,1,0],[0.5,1,0],[0.75,1,0],[1,1,0],[0,0.25,0],[0,0.5,0],[0,0.75,0],[1,0.25,0],[1,0.5,0],[1,0.75,0]];outlineConnect=0;fontColor=#232F3E;fillColor=#8C4FFF;strokeColor=#ffffff;dashed=0;verticalLabelPosition=bottom;verticalAlign=top;align=center;html=1;fontSize=12;fontStyle=0;aspect=fixed;shape=mxgraph.aws4.resourceIcon;resIcon=mxgraph.aws4.elastic_load_balancing;" vertex="1" parent="qDJffVcF8Huqy4RCvGuB-44">
          <mxGeometry width="78" height="78" as="geometry" />
        </mxCell>
        <mxCell id="qDJffVcF8Huqy4RCvGuB-40" value="Balanceador de carga" style="text;html=1;align=center;verticalAlign=middle;whiteSpace=wrap;rounded=0;" vertex="1" parent="qDJffVcF8Huqy4RCvGuB-44">
          <mxGeometry x="9" y="84" width="60" height="20" as="geometry" />
        </mxCell>
        <mxCell id="qDJffVcF8Huqy4RCvGuB-45" value="" style="group" vertex="1" connectable="0" parent="qDJffVcF8Huqy4RCvGuB-4">
          <mxGeometry x="500" y="30" width="78" height="108" as="geometry" />
        </mxCell>
        <mxCell id="qDJffVcF8Huqy4RCvGuB-10" value="" style="sketch=0;points=[[0,0,0],[0.25,0,0],[0.5,0,0],[0.75,0,0],[1,0,0],[0,1,0],[0.25,1,0],[0.5,1,0],[0.75,1,0],[1,1,0],[0,0.25,0],[0,0.5,0],[0,0.75,0],[1,0.25,0],[1,0.5,0],[1,0.75,0]];points=[[0,0,0],[0.25,0,0],[0.5,0,0],[0.75,0,0],[1,0,0],[0,1,0],[0.25,1,0],[0.5,1,0],[0.75,1,0],[1,1,0],[0,0.25,0],[0,0.5,0],[0,0.75,0],[1,0.25,0],[1,0.5,0],[1,0.75,0]];outlineConnect=0;fontColor=#232F3E;fillColor=#E7157B;strokeColor=#ffffff;dashed=0;verticalLabelPosition=bottom;verticalAlign=top;align=center;html=1;fontSize=12;fontStyle=0;aspect=fixed;shape=mxgraph.aws4.resourceIcon;resIcon=mxgraph.aws4.cloudwatch_2;" vertex="1" parent="qDJffVcF8Huqy4RCvGuB-45">
          <mxGeometry width="78" height="78" as="geometry" />
        </mxCell>
        <mxCell id="qDJffVcF8Huqy4RCvGuB-42" value="CloudWatch" style="text;html=1;align=center;verticalAlign=middle;whiteSpace=wrap;rounded=0;" vertex="1" parent="qDJffVcF8Huqy4RCvGuB-45">
          <mxGeometry x="9" y="78" width="60" height="30" as="geometry" />
        </mxCell>
        <mxCell id="qDJffVcF8Huqy4RCvGuB-46" value="" style="group" vertex="1" connectable="0" parent="qDJffVcF8Huqy4RCvGuB-4">
          <mxGeometry x="277" y="40" width="68" height="98" as="geometry" />
        </mxCell>
        <mxCell id="qDJffVcF8Huqy4RCvGuB-2" value="" style="sketch=0;points=[[0,0,0],[0.25,0,0],[0.5,0,0],[0.75,0,0],[1,0,0],[0,1,0],[0.25,1,0],[0.5,1,0],[0.75,1,0],[1,1,0],[0,0.25,0],[0,0.5,0],[0,0.75,0],[1,0.25,0],[1,0.5,0],[1,0.75,0]];outlineConnect=0;fontColor=#232F3E;fillColor=#ED7100;strokeColor=#ffffff;dashed=0;verticalLabelPosition=bottom;verticalAlign=top;align=center;html=1;fontSize=12;fontStyle=0;aspect=fixed;shape=mxgraph.aws4.resourceIcon;resIcon=mxgraph.aws4.fargate;" vertex="1" parent="qDJffVcF8Huqy4RCvGuB-46">
          <mxGeometry width="68" height="68" as="geometry" />
        </mxCell>
        <mxCell id="qDJffVcF8Huqy4RCvGuB-37" value="Fargate" style="text;html=1;align=center;verticalAlign=middle;whiteSpace=wrap;rounded=0;" vertex="1" parent="qDJffVcF8Huqy4RCvGuB-46">
          <mxGeometry x="4" y="68" width="60" height="30" as="geometry" />
        </mxCell>
        <mxCell id="qDJffVcF8Huqy4RCvGuB-17" value="" style="sketch=0;outlineConnect=0;fontColor=#232F3E;gradientColor=none;fillColor=#232F3D;strokeColor=none;dashed=0;verticalLabelPosition=bottom;verticalAlign=top;align=center;html=1;fontSize=12;fontStyle=0;aspect=fixed;pointerEvents=1;shape=mxgraph.aws4.users;" vertex="1" parent="1">
          <mxGeometry x="-120" y="240" width="78" height="78" as="geometry" />
        </mxCell>
        <mxCell id="qDJffVcF8Huqy4RCvGuB-18" value="" style="html=1;endArrow=block;elbow=vertical;startArrow=none;endFill=1;strokeColor=#545B64;rounded=0;" edge="1" parent="1" source="qDJffVcF8Huqy4RCvGuB-17" target="qDJffVcF8Huqy4RCvGuB-11">
          <mxGeometry width="100" relative="1" as="geometry">
            <mxPoint x="-110" y="390" as="sourcePoint" />
            <mxPoint x="-10" y="390" as="targetPoint" />
          </mxGeometry>
        </mxCell>
        <mxCell id="qDJffVcF8Huqy4RCvGuB-27" value="&lt;ul&gt;&lt;li&gt;&lt;span style=&quot;background-color: transparent; color: light-dark(rgb(0, 0, 0), rgb(255, 255, 255));&quot;&gt;Frontend&lt;/span&gt;&lt;/li&gt;&lt;li&gt;&lt;span style=&quot;background-color: transparent; color: light-dark(rgb(0, 0, 0), rgb(255, 255, 255));&quot;&gt;Backend&lt;/span&gt;&lt;/li&gt;&lt;li&gt;&lt;span style=&quot;background-color: transparent; color: light-dark(rgb(0, 0, 0), rgb(255, 255, 255));&quot;&gt;Kong&lt;/span&gt;&lt;/li&gt;&lt;li&gt;&lt;span style=&quot;background-color: transparent; color: light-dark(rgb(0, 0, 0), rgb(255, 255, 255));&quot;&gt;Keycloak&lt;/span&gt;&lt;/li&gt;&lt;/ul&gt;" style="text;html=1;align=left;verticalAlign=middle;whiteSpace=wrap;rounded=0;" vertex="1" parent="1">
          <mxGeometry x="1089" y="210" width="61" height="30" as="geometry" />
        </mxCell>
        <mxCell id="qDJffVcF8Huqy4RCvGuB-28" value="" style="sketch=0;outlineConnect=0;fontColor=#232F3E;gradientColor=none;fillColor=#ED7100;strokeColor=none;dashed=0;verticalLabelPosition=bottom;verticalAlign=top;align=center;html=1;fontSize=12;fontStyle=0;aspect=fixed;pointerEvents=1;shape=mxgraph.aws4.registry;" vertex="1" parent="1">
          <mxGeometry x="1121" y="140" width="48" height="48" as="geometry" />
        </mxCell>
        <mxCell id="qDJffVcF8Huqy4RCvGuB-1" value="" style="sketch=0;points=[[0,0,0],[0.25,0,0],[0.5,0,0],[0.75,0,0],[1,0,0],[0,1,0],[0.25,1,0],[0.5,1,0],[0.75,1,0],[1,1,0],[0,0.25,0],[0,0.5,0],[0,0.75,0],[1,0.25,0],[1,0.5,0],[1,0.75,0]];outlineConnect=0;fontColor=#232F3E;fillColor=#ED7100;strokeColor=#ffffff;dashed=0;verticalLabelPosition=bottom;verticalAlign=top;align=center;html=1;fontSize=12;fontStyle=0;aspect=fixed;shape=mxgraph.aws4.resourceIcon;resIcon=mxgraph.aws4.ecr;" vertex="1" parent="1">
          <mxGeometry x="1083" y="50" width="38" height="38" as="geometry" />
        </mxCell>
        <mxCell id="qDJffVcF8Huqy4RCvGuB-41" value="Usuarios" style="text;html=1;align=center;verticalAlign=middle;whiteSpace=wrap;rounded=0;" vertex="1" parent="1">
          <mxGeometry x="-111" y="340" width="60" height="30" as="geometry" />
        </mxCell>
      </root>
    </mxGraphModel>
  </diagram>
</mxfile>
